# xmcd CD database file
#
# Track frame offsets:
#	150
#	17374
#	30933
#	46960
#	63480
#	78749
#	94569
#	107534
#	119866
#	133070
#	146205
#	162815
#	175328
#	187485
#	202028
#	216027
#	230690
#	245350
#	262019
#	280741
#	290705
#
# Disc length: 4109 seconds
#
# Revision: 0
# Processed by: cddbd v1.5.2PL0 Copyright (c) Steve Scherf et al.
# Submitted via: CD2WAV32(JP) R3.22
#
DISCID=42100b15
DTITLE=佐良直美 - Golden Best 忘れ得ぬ名唱・佐良直美
DYEAR=2007
DGENRE=JPop
TTITLE0=01 佐良直美 - 世界は二人のために
TTITLE1=02 佐良直美 - 私がすきなもの
TTITLE2=03 佐良直美 - 星になりたい
TTITLE3=04 佐良直美 - すてきなファニー
TTITLE4=05 佐良直美 - 知らないで愛されて
TTITLE5=06 佐良直美 - いいじゃないの幸せならば
TTITLE6=07 佐良直美 - どこへ行こうかこれから二人
TTITLE7=08 佐良直美 - 生きてるって素晴らしい
TTITLE8=09 佐良直美 - 片道列車
TTITLE9=10 佐良直美 - のんびりやるさ
TTITLE10=11 佐良直美 - 別れ話は背中にしてね
TTITLE11=12 佐良直美 - 花のフェスティバル
TTITLE12=13 佐良直美 - 夜明けのうた
TTITLE13=14 佐良直美 - 君待てども
TTITLE14=15 佐良直美 - ありがとう
TTITLE15=16 佐良直美 - ひとり旅
TTITLE16=17 佐良直美 - 速達
TTITLE17=18 佐良直美 - 時計館
TTITLE18=19 佐良直美 - 愛の消しゴム
TTITLE19=20 佐良直美 - テネシー・ワルツ
TTITLE20=21 佐良直美 - リリー・マルレーン
EXTD=
EXTT0=
EXTT1=
EXTT2=
EXTT3=
EXTT4=
EXTT5=
EXTT6=
EXTT7=
EXTT8=
EXTT9=
EXTT10=
EXTT11=
EXTT12=
EXTT13=
EXTT14=
EXTT15=
EXTT16=
EXTT17=
EXTT18=
EXTT19=
EXTT20=
PLAYORDER=
